<svg width="40" height="40" viewBox="0 0 40 40" fill="none" xmlns="http://www.w3.org/2000/svg">
<path d="M8.75007 19.355C8.75007 19.0128 8.88177 18.6846 9.11619 18.4426C9.35061 18.2007 9.66855 18.0647 10.0001 18.0647L26.9876 18.0647L25.3626 16.4002C25.1272 16.1572 24.995 15.8277 24.995 15.4841C24.995 15.1405 25.1272 14.8109 25.3626 14.5679C25.5979 14.325 25.9172 14.1885 26.2501 14.1885C26.5829 14.1885 26.9022 14.325 27.1376 14.5679L30.8876 18.4389C31.061 18.6204 31.1785 18.8508 31.2252 19.1011C31.2719 19.3514 31.2458 19.6104 31.1501 19.8454C31.0563 20.081 30.897 20.2827 30.6924 20.4251C30.4877 20.5674 30.2469 20.6441 30.0001 20.6454L10.0001 20.6454C9.66855 20.6454 9.35061 20.5094 9.11619 20.2674C8.88177 20.0255 8.75007 19.6973 8.75007 19.355Z" fill="white"/>
<path d="M25 23.2257C24.9991 23.0558 25.0306 22.8875 25.0928 22.7303C25.155 22.5731 25.2467 22.4301 25.3625 22.3095L29.1125 18.4386C29.3479 18.1956 29.6671 18.0591 30 18.0591C30.1648 18.0591 30.328 18.0926 30.4803 18.1577C30.6326 18.2228 30.771 18.3182 30.8875 18.4386C31.0041 18.5589 31.0965 18.7017 31.1596 18.8589C31.2227 19.0161 31.2551 19.1845 31.2551 19.3547C31.2551 19.6983 31.1229 20.0278 30.8875 20.2708L27.1375 24.1418C27.0213 24.2627 26.8831 24.3587 26.7307 24.4242C26.5784 24.4897 26.415 24.5235 26.25 24.5235C26.085 24.5235 25.9216 24.4897 25.7693 24.4242C25.617 24.3587 25.4787 24.2627 25.3625 24.1418C25.2467 24.0212 25.155 23.8782 25.0928 23.721C25.0306 23.5638 24.9991 23.3955 25 23.2257Z" fill="white"/>
</svg>
