<svg width="32" height="32" viewBox="0 0 32 32" fill="none" xmlns="http://www.w3.org/2000/svg">
<path d="M15.8667 7.00004C16.1405 7.00004 16.4031 7.1054 16.5967 7.29293C16.7902 7.48047 16.899 7.73482 16.899 8.00004L16.899 21.59L18.2306 20.29C18.425 20.1017 18.6886 19.996 18.9635 19.996C19.2384 19.996 19.502 20.1017 19.6964 20.29C19.8908 20.4783 20 20.7337 20 21C20 21.2663 19.8908 21.5217 19.6964 21.71L16.5996 24.71C16.4545 24.8488 16.2702 24.9428 16.0699 24.9802C15.8697 25.0175 15.6625 24.9966 15.4745 24.92C15.286 24.845 15.1246 24.7176 15.0107 24.5539C14.8968 24.3902 14.8355 24.1975 14.8345 24L14.8345 8.00004C14.8345 7.73482 14.9432 7.48047 15.1368 7.29293C15.3304 7.1054 15.593 7.00004 15.8667 7.00004Z" fill="#909090"/>
<path d="M12.7701 20C12.9059 19.9992 13.0406 20.0245 13.1664 20.0742C13.2921 20.124 13.4065 20.1973 13.503 20.29L16.5997 23.29C16.7941 23.4783 16.9033 23.7337 16.9033 24C16.9033 24.1319 16.8765 24.2624 16.8244 24.3842C16.7723 24.5061 16.696 24.6168 16.5997 24.71C16.5035 24.8032 16.3892 24.8772 16.2635 24.9277C16.1377 24.9781 16.003 25.0041 15.8668 25.0041C15.5919 25.0041 15.3283 24.8983 15.1339 24.71L12.0372 21.71C11.9404 21.617 11.8636 21.5064 11.8112 21.3846C11.7588 21.2627 11.7318 21.132 11.7318 21C11.7318 20.868 11.7588 20.7373 11.8112 20.6154C11.8636 20.4936 11.9404 20.383 12.0372 20.29C12.1336 20.1973 12.248 20.124 12.3738 20.0742C12.4995 20.0245 12.6342 19.9992 12.7701 20Z" fill="#909090"/>
</svg>
