<svg width="46" height="46" viewBox="0 0 46 46" fill="none" xmlns="http://www.w3.org/2000/svg">
<path d="M30.5174 37.8382H15.4827C14.5061 37.8382 13.7144 38.6686 13.7144 39.6929C13.7144 40.7172 14.5061 41.5476 15.4827 41.5476H30.5174C31.494 41.5476 32.2857 40.7172 32.2857 39.6929C32.2857 38.6686 31.494 37.8382 30.5174 37.8382Z" fill="#5D4D66"/>
<path d="M10.8563 17.9986H8V24.8748H10.8563V17.9986Z" fill="#5D4D66"/>
<path d="M16.5707 12.5508H13.7144V24.8723H16.5707V12.5508Z" fill="#5D4D66"/>
<path d="M22.2821 15.4093H19.4258V24.8745H22.2821V15.4093Z" fill="#5D4D66"/>
<path d="M32.9986 8.26505C32.9874 8.26549 32.9762 8.26597 32.9651 8.26648L32.9135 14.5319L37.9693 18.7717C38.9123 17.6219 39.4275 16.1808 39.4272 14.6938C39.4272 12.9888 38.7499 11.3536 37.5443 10.148C36.3387 8.94239 34.7035 8.26508 32.9986 8.26508L32.9986 8.26505Z" fill="#5D4D66"/>
<path d="M5.14011 3.7338C3.93996 3.7338 3 4.76682 3 5.97017V15.0398C3.0015 15.4321 3.31919 15.7498 3.71151 15.7513C4.10383 15.7499 4.42149 15.4321 4.42302 15.0398V5.97017C4.42302 5.48602 4.75737 5.16379 5.14011 5.16379H40.8537C41.2364 5.16379 41.5708 5.48602 41.5708 5.97017V27.974H4.42302V17.9975C4.42152 17.6051 4.10383 17.2875 3.71151 17.286C3.31919 17.2874 3.00153 17.6051 3 17.9975V31.8594C3 33.0627 3.93996 34.1013 5.14011 34.1013H18.8011L17.7966 37.1217H15.4807C14.0988 37.1217 12.9974 38.2969 12.9974 39.6901C12.9974 41.0833 14.0988 42.2627 15.4807 42.2627H30.5131C31.895 42.2627 32.9964 41.0833 32.9964 39.6901C32.9964 38.2969 31.895 37.1217 30.5131 37.1217H28.2028L27.1983 34.1013H40.8537C42.0539 34.1013 42.9994 33.0627 42.9994 31.8594V5.97017C42.9994 4.76682 42.0539 3.7338 40.8537 3.7338H5.14011ZM32.9964 7.55223C29.0599 7.55223 25.852 10.7545 25.852 14.691C25.852 18.6275 29.0599 21.8354 32.9964 21.8354C36.9329 21.8354 40.1422 18.6275 40.1422 14.691C40.1422 10.7545 36.9329 7.55223 32.9964 7.55223ZM32.2849 9.02966V13.9795H27.3294C27.6499 11.3877 29.6924 9.34945 32.2849 9.02966ZM33.7149 9.02966C36.5378 9.38129 38.7136 11.7705 38.7136 14.691C38.7136 15.8562 38.3644 16.9363 37.7691 17.8384L33.7149 14.3646V9.02966ZM13.7145 11.8394C13.3199 11.8379 12.9988 12.1563 12.9974 12.5509V24.1555H11.5674V17.9975C11.5661 17.6049 11.2485 17.2874 10.8559 17.286H7.99871C7.60409 17.2845 7.28301 17.6028 7.28162 17.9975V24.1555H6.57011C6.4756 24.155 6.38192 24.1732 6.2945 24.2091C6.20707 24.245 6.12765 24.2979 6.06082 24.3647C5.99399 24.4315 5.94109 24.511 5.90518 24.5984C5.86927 24.6858 5.85106 24.7795 5.85162 24.874C5.85198 24.9679 5.87087 25.0609 5.90719 25.1475C5.94351 25.2341 5.99656 25.3127 6.0633 25.3788C6.13003 25.4449 6.20915 25.4971 6.29611 25.5326C6.38308 25.5681 6.47619 25.5861 6.57011 25.5855H23.7119C23.8057 25.5859 23.8987 25.5678 23.9855 25.5322C24.0723 25.4967 24.1512 25.4443 24.2178 25.3783C24.2844 25.3122 24.3373 25.2337 24.3736 25.1471C24.4098 25.0606 24.4286 24.9678 24.429 24.874C24.4295 24.7796 24.4114 24.686 24.3756 24.5987C24.3397 24.5114 24.287 24.432 24.2203 24.3652C24.1536 24.2984 24.0743 24.2455 23.9871 24.2095C23.8998 24.1735 23.8063 24.1551 23.7119 24.1555H23.0004V15.4081C23.0019 15.0115 22.6786 14.6895 22.2819 14.691H19.4247C19.0301 14.6925 18.7117 15.0135 18.7132 15.4081V24.1555H17.2846V12.5509C17.2832 12.1563 16.9607 11.8379 16.5661 11.8394H13.7145ZM14.426 13.268H15.8546V24.1555H14.426V13.268ZM27.3294 15.4081H32.7355L36.8358 18.9238C35.8216 19.8432 34.4778 20.4068 32.9964 20.4068C30.0754 20.4068 27.6812 18.2315 27.3294 15.4081ZM20.1418 16.1196H21.5704V24.1555H20.1418V16.1196ZM8.71021 18.709H10.1388V24.1555H8.71021V18.709ZM4.42302 29.4025H41.5708V31.8594C41.5708 32.3435 41.2365 32.6713 40.8537 32.6713H5.14011C4.75737 32.6713 4.42302 32.3435 4.42302 31.8594V29.4025ZM20.305 34.1013H25.6888L26.6961 37.1217H19.2978L20.305 34.1013ZM15.4807 38.5517H30.5131C31.0909 38.5517 31.5678 39.028 31.5678 39.6901C31.5678 40.3522 31.0909 40.8341 30.5131 40.8341H15.4807C14.9029 40.8341 14.426 40.3522 14.426 39.6901C14.426 39.028 14.9029 38.5517 15.4807 38.5517Z" fill="#FAFAFA"/>
</svg>
