<svg width="32" height="33" viewBox="0 0 32 33" fill="none" xmlns="http://www.w3.org/2000/svg">
<path d="M25.9199 17.8334C25.6266 17.8334 25.3199 17.74 25.0266 17.6734C24.4325 17.5425 23.8488 17.3687 23.2799 17.1534C22.6613 16.9283 21.9814 16.94 21.371 17.1862C20.7605 17.4323 20.2627 17.8955 19.9732 18.4867L19.6799 19.0867C18.3812 18.3643 17.1879 17.467 16.1332 16.42C15.0862 15.3654 14.189 14.172 13.4666 12.8734L14.0266 12.5C14.6177 12.2106 15.0809 11.7127 15.3271 11.1023C15.5732 10.4918 15.5849 9.81191 15.3599 9.19336C15.1482 8.62326 14.9745 8.03976 14.8399 7.44669C14.7732 7.15336 14.7199 6.84669 14.6799 6.54003C14.518 5.60085 14.0261 4.75035 13.2927 4.14168C12.5594 3.53301 11.6328 3.20617 10.6799 3.22003H6.67989C6.10527 3.21463 5.53622 3.33311 5.0115 3.5674C4.48678 3.80169 4.0187 4.14629 3.63913 4.57774C3.25956 5.00918 2.9774 5.51735 2.81187 6.06765C2.64635 6.61794 2.60133 7.19744 2.67989 7.76669C3.39021 13.3525 5.94126 18.5425 9.93009 22.5169C13.9189 26.4912 19.1182 29.0234 24.7066 29.7134H25.2132C26.1964 29.7148 27.1458 29.3541 27.8799 28.7C28.3017 28.3228 28.6387 27.8603 28.8685 27.3431C29.0984 26.826 29.2158 26.2659 29.2132 25.7V21.7C29.1969 20.7739 28.8596 19.8821 28.259 19.1769C27.6584 18.4717 26.8316 17.9969 25.9199 17.8334ZM26.5866 25.8334C26.5863 26.0227 26.5458 26.2098 26.4676 26.3822C26.3894 26.5546 26.2754 26.7084 26.1332 26.8334C25.9842 26.962 25.81 27.0581 25.6218 27.1155C25.4335 27.1729 25.2353 27.1903 25.0399 27.1667C20.0464 26.5264 15.4082 24.242 11.8568 20.6737C8.30548 17.1055 6.0431 12.4565 5.42656 7.46003C5.40534 7.26472 5.42393 7.06713 5.48123 6.87922C5.53852 6.6913 5.63332 6.51694 5.75989 6.36669C5.88484 6.22447 6.03864 6.11048 6.21106 6.03232C6.38348 5.95415 6.57058 5.9136 6.75989 5.91336H10.7599C11.07 5.90646 11.3727 6.00787 11.6161 6.20012C11.8594 6.39238 12.0282 6.66345 12.0932 6.96669C12.1466 7.33114 12.2132 7.69114 12.2932 8.04669C12.4472 8.74955 12.6522 9.44027 12.9066 10.1134L11.0399 10.98C10.8803 11.0533 10.7367 11.1573 10.6174 11.2862C10.4981 11.415 10.4055 11.5662 10.3448 11.731C10.2841 11.8957 10.2565 12.0709 10.2637 12.2463C10.2709 12.4218 10.3126 12.5941 10.3866 12.7534C12.3055 16.8637 15.6095 20.1678 19.7199 22.0867C20.0445 22.2201 20.4086 22.2201 20.7332 22.0867C20.8995 22.0272 21.0523 21.9353 21.1828 21.8163C21.3132 21.6973 21.4188 21.5535 21.4932 21.3934L22.3199 19.5267C23.0092 19.7732 23.7127 19.978 24.4266 20.14C24.7821 20.22 25.1421 20.2867 25.5066 20.34C25.8098 20.4051 26.0809 20.5738 26.2731 20.8172C26.4654 21.0605 26.5668 21.3633 26.5599 21.6734L26.5866 25.8334Z" fill="white"/>
</svg>
