<svg width="32" height="32" viewBox="0 0 32 32" fill="none" xmlns="http://www.w3.org/2000/svg">
<path d="M16 20.0001C15.8245 20.0011 15.6506 19.9675 15.4881 19.9011C15.3257 19.8348 15.1779 19.737 15.0533 19.6134L9.72 14.2801C9.46893 14.029 9.32788 13.6885 9.32788 13.3334C9.32788 12.9783 9.46893 12.6378 9.72 12.3868C9.97107 12.1357 10.3116 11.9946 10.6667 11.9946C11.0217 11.9946 11.3623 12.1357 11.6133 12.3868L16 16.7868L20.3867 12.4001C20.6417 12.1816 20.9698 12.0675 21.3054 12.0805C21.641 12.0934 21.9593 12.2325 22.1968 12.47C22.4342 12.7075 22.5733 13.0258 22.5863 13.3613C22.5992 13.6969 22.4851 14.025 22.2667 14.2801L16.9333 19.6134C16.685 19.8597 16.3498 19.9986 16 20.0001Z" fill="#313131"/>
</svg>
