<svg width="25" height="24" viewBox="0 0 25 24" fill="none" xmlns="http://www.w3.org/2000/svg">
<g clip-path="url(#clip0_1_1367)">
<path d="M18.4999 7.05C18.4999 6.78478 18.3946 6.53043 18.207 6.34289C18.0195 6.15536 17.7652 6.05 17.4999 6.05L9.49994 6C9.23472 6 8.98037 6.10536 8.79283 6.29289C8.6053 6.48043 8.49994 6.73478 8.49994 7C8.49994 7.26522 8.6053 7.51957 8.79283 7.70711C8.98037 7.89464 9.23472 8 9.49994 8H15.0599L6.78994 16.29C6.69621 16.383 6.62182 16.4936 6.57105 16.6154C6.52028 16.7373 6.49414 16.868 6.49414 17C6.49414 17.132 6.52028 17.2627 6.57105 17.3846C6.62182 17.5064 6.69621 17.617 6.78994 17.71C6.8829 17.8037 6.9935 17.8781 7.11536 17.9289C7.23722 17.9797 7.36793 18.0058 7.49994 18.0058C7.63195 18.0058 7.76266 17.9797 7.88452 17.9289C8.00638 17.8781 8.11698 17.8037 8.20994 17.71L16.4999 9.42V15C16.4999 15.2652 16.6053 15.5196 16.7928 15.7071C16.9804 15.8946 17.2347 16 17.4999 16C17.7652 16 18.0195 15.8946 18.207 15.7071C18.3946 15.5196 18.4999 15.2652 18.4999 15V7.05Z" fill="#FAF8F5"/>
</g>
<defs>
<clipPath id="clip0_1_1367">
<rect width="24" height="24" fill="white" transform="translate(0.5)"/>
</clipPath>
</defs>
</svg>
