<svg width="32" height="32" viewBox="0 0 32 32" fill="none" xmlns="http://www.w3.org/2000/svg">
<path d="M2.6668 14.6667H10.6668C11.0204 14.6667 11.3596 14.5262 11.6096 14.2761C11.8597 14.0261 12.0001 13.687 12.0001 13.3333V5.33333C12.0001 4.97971 11.8597 4.64057 11.6096 4.39052C11.3596 4.14048 11.0204 4 10.6668 4H2.6668C2.31317 4 1.97403 4.14048 1.72399 4.39052C1.47394 4.64057 1.33346 4.97971 1.33346 5.33333V13.3333C1.33346 13.687 1.47394 14.0261 1.72399 14.2761C1.97403 14.5262 2.31317 14.6667 2.6668 14.6667ZM4.00013 6.66667H9.33346V12H4.00013V6.66667ZM29.3335 8H16.0001C15.6465 8 15.3074 8.14048 15.0573 8.39052C14.8073 8.64057 14.6668 8.97971 14.6668 9.33333C14.6668 9.68695 14.8073 10.0261 15.0573 10.2761C15.3074 10.5262 15.6465 10.6667 16.0001 10.6667H29.3335C29.6871 10.6667 30.0262 10.5262 30.2763 10.2761C30.5263 10.0261 30.6668 9.68695 30.6668 9.33333C30.6668 8.97971 30.5263 8.64057 30.2763 8.39052C30.0262 8.14048 29.6871 8 29.3335 8ZM29.3335 21.3333H16.0001C15.6465 21.3333 15.3074 21.4738 15.0573 21.7239C14.8073 21.9739 14.6668 22.313 14.6668 22.6667C14.6668 23.0203 14.8073 23.3594 15.0573 23.6095C15.3074 23.8595 15.6465 24 16.0001 24H29.3335C29.6871 24 30.0262 23.8595 30.2763 23.6095C30.5263 23.3594 30.6668 23.0203 30.6668 22.6667C30.6668 22.313 30.5263 21.9739 30.2763 21.7239C30.0262 21.4738 29.6871 21.3333 29.3335 21.3333ZM5.25613 26.6667H5.27213C5.62173 26.6655 5.9569 26.5272 6.20546 26.2813L11.6001 20.948C11.7385 20.8289 11.851 20.6826 11.9306 20.5182C12.0101 20.3538 12.055 20.1749 12.0626 19.9924C12.0701 19.81 12.0401 19.6279 11.9744 19.4575C11.9087 19.2872 11.8086 19.1321 11.6805 19.002C11.5524 18.8718 11.3989 18.7694 11.2296 18.701C11.0603 18.6327 10.8787 18.5998 10.6961 18.6045C10.5136 18.6092 10.3339 18.6513 10.1683 18.7283C10.0027 18.8053 9.85473 18.9155 9.73346 19.052L5.2948 23.4373L3.62546 21.704C3.50368 21.5781 3.3583 21.4774 3.19761 21.4077C3.03693 21.338 2.86408 21.3006 2.68895 21.2977C2.33526 21.2919 1.99372 21.4267 1.73946 21.6727C1.48521 21.9186 1.33907 22.2555 1.33319 22.6092C1.32732 22.9629 1.46218 23.3044 1.70813 23.5587L4.31346 26.2667C4.43648 26.3922 4.58309 26.4921 4.74486 26.5608C4.90664 26.6294 5.08039 26.6654 5.25613 26.6667Z" fill="#F4F3F8"/>
</svg>
