<svg width="24" height="25" viewBox="0 0 24 25" fill="none" xmlns="http://www.w3.org/2000/svg">
<path d="M20.4599 10.1301C20.3195 8.66898 19.8031 7.26915 18.9611 6.06688C18.119 4.86462 16.98 3.9009 15.6549 3.26956C14.3298 2.63822 12.8638 2.36079 11.3996 2.46427C9.93543 2.56775 8.52301 3.04863 7.29988 3.86006C6.24908 4.56271 5.36693 5.48936 4.71682 6.57346C4.06672 7.65755 3.66478 8.87217 3.53988 10.1301C3.41736 11.3797 3.57455 12.641 4.00005 13.8223C4.42555 15.0037 5.10868 16.0755 5.99988 16.9601L11.2999 22.2701C11.3928 22.3638 11.5034 22.4382 11.6253 22.489C11.7472 22.5397 11.8779 22.5659 12.0099 22.5659C12.1419 22.5659 12.2726 22.5397 12.3945 22.489C12.5163 22.4382 12.6269 22.3638 12.7199 22.2701L17.9999 16.9601C18.8911 16.0755 19.5742 15.0037 19.9997 13.8223C20.4252 12.641 20.5824 11.3797 20.4599 10.1301ZM16.5999 15.5501L11.9999 20.1501L7.39988 15.5501C6.72197 14.8721 6.20268 14.0524 5.87935 13.1498C5.55601 12.2473 5.43667 11.2843 5.52988 10.3301C5.6237 9.36117 5.93164 8.42522 6.43145 7.58991C6.93126 6.75459 7.61044 6.04077 8.41988 5.50006C9.48083 4.7953 10.7262 4.41936 11.9999 4.41936C13.2736 4.41936 14.5189 4.7953 15.5799 5.50006C16.3869 6.03868 17.0646 6.74935 17.5642 7.581C18.0639 8.41266 18.3732 9.34467 18.4699 10.3101C18.5661 11.2675 18.4483 12.2343 18.1249 13.1406C17.8014 14.0469 17.2805 14.8699 16.5999 15.5501ZM11.9999 6.50006C11.1099 6.50006 10.2398 6.76399 9.49982 7.25845C8.75979 7.75292 8.18302 8.45572 7.84242 9.27799C7.50183 10.1003 7.41271 11.0051 7.58635 11.878C7.75998 12.7509 8.18856 13.5527 8.8179 14.182C9.44724 14.8114 10.2491 15.24 11.122 15.4136C11.9949 15.5872 12.8997 15.4981 13.722 15.1575C14.5442 14.8169 15.247 14.2402 15.7415 13.5001C16.236 12.7601 16.4999 11.8901 16.4999 11.0001C16.4972 9.8074 16.0223 8.66434 15.1789 7.821C14.3356 6.97766 13.1925 6.50271 11.9999 6.50006ZM11.9999 13.5001C11.5054 13.5001 11.0221 13.3534 10.611 13.0787C10.1998 12.804 9.8794 12.4136 9.69018 11.9568C9.50096 11.5 9.45145 10.9973 9.54792 10.5123C9.64438 10.0274 9.88248 9.58193 10.2321 9.2323C10.5817 8.88267 11.0272 8.64456 11.5122 8.5481C11.9971 8.45164 12.4998 8.50115 12.9566 8.69037C13.4134 8.87958 13.8039 9.20002 14.0786 9.61114C14.3533 10.0223 14.4999 10.5056 14.4999 11.0001C14.4999 11.6631 14.2365 12.299 13.7676 12.7678C13.2988 13.2367 12.6629 13.5001 11.9999 13.5001Z" fill="#F5993C"/>
</svg>
