<svg width="57" height="56" viewBox="0 0 57 56" fill="none" xmlns="http://www.w3.org/2000/svg">
<path d="M13.0703 43.0185C12.7246 42.7913 12.3938 42.5423 12.0798 42.273L10.986 41.335C10.8097 41.1842 10.5806 41.1096 10.3492 41.1277C10.1178 41.1457 9.90312 41.2549 9.75228 41.4313C9.60144 41.6077 9.52684 41.8367 9.54489 42.0681C9.56294 42.2995 9.67216 42.5142 9.84853 42.665L10.9423 43.6013C11.3128 43.9196 11.7036 44.2137 12.1122 44.4815C12.3062 44.6092 12.5429 44.6545 12.7704 44.6076C12.9978 44.5607 13.1973 44.4253 13.3249 44.2313C13.4525 44.0373 13.4979 43.8005 13.451 43.5731C13.404 43.3457 13.2687 43.1462 13.0747 43.0185H13.0703ZM20.4789 44.4868C19.9377 44.5786 19.3898 44.6248 18.8409 44.625H18.4375C17.4855 44.6253 16.5386 44.4858 15.627 44.2112C15.4047 44.1443 15.165 44.1686 14.9605 44.2785C14.756 44.3884 14.6036 44.5751 14.5368 44.7974C14.4699 45.0197 14.4942 45.2595 14.6041 45.464C14.7141 45.6684 14.9007 45.8208 15.123 45.8877C16.1982 46.2107 17.3149 46.3749 18.4375 46.375H18.8409C19.4877 46.375 20.1334 46.3205 20.7712 46.2123C20.8845 46.1931 20.9929 46.1518 21.0902 46.0907C21.1875 46.0296 21.2719 45.95 21.3384 45.8563C21.405 45.7626 21.4524 45.6567 21.478 45.5447C21.5037 45.4327 21.507 45.3167 21.4878 45.2034C21.4686 45.0901 21.4273 44.9817 21.3662 44.8844C21.3051 44.7871 21.2254 44.7027 21.1318 44.6362C21.0381 44.5696 20.9322 44.5222 20.8202 44.4965C20.7082 44.4709 20.5922 44.4676 20.4789 44.4868ZM46.014 41.335L44.9203 42.273C44.6063 42.5423 44.2754 42.7913 43.9298 43.0185C43.7358 43.1462 43.6004 43.3457 43.5535 43.5731C43.5066 43.8005 43.5519 44.0373 43.6795 44.2313C43.8072 44.4253 44.0066 44.5607 44.2341 44.6076C44.4615 44.6545 44.6983 44.6092 44.8923 44.4815C45.3005 44.2151 45.6912 43.9228 46.0622 43.6065L47.1559 42.6694C47.2432 42.5947 47.315 42.5036 47.3671 42.4011C47.4192 42.2987 47.4506 42.187 47.4596 42.0725C47.4685 41.9579 47.4548 41.8427 47.4192 41.7334C47.3836 41.6242 47.3268 41.523 47.2522 41.4357C47.1775 41.3483 47.0863 41.2766 46.9839 41.2245C46.8815 41.1724 46.7698 41.141 46.6552 41.132C46.5407 41.1231 46.4254 41.1368 46.3162 41.1724C46.2069 41.208 46.1057 41.2647 46.0184 41.3394L46.014 41.335ZM41.373 44.2112C40.4615 44.4858 39.5146 44.6253 38.5625 44.625H38.1592C37.6103 44.6248 37.0623 44.5786 36.5212 44.4868C36.4079 44.4676 36.2919 44.4709 36.1799 44.4965C36.0679 44.5222 35.962 44.5696 35.8683 44.6362C35.7746 44.7027 35.695 44.7871 35.6339 44.8844C35.5728 44.9817 35.5315 45.0901 35.5123 45.2034C35.4931 45.3167 35.4964 45.4327 35.522 45.5447C35.5477 45.6567 35.5951 45.7626 35.6617 45.8563C35.796 46.0455 36.0001 46.1735 36.2289 46.2123C36.8666 46.3205 37.5123 46.375 38.1592 46.375H38.5625C39.6852 46.3749 40.8018 46.2107 41.877 45.8877C42.0993 45.8208 42.286 45.6684 42.396 45.464C42.5059 45.2595 42.5301 45.0197 42.4633 44.7974C42.3965 44.5751 42.244 44.3884 42.0396 44.2785C41.8351 44.1686 41.5954 44.1443 41.373 44.2112Z" fill="#264065"/>
<path d="M46.0622 33.3997C45.0946 32.5754 43.9979 31.9162 42.816 31.4484C43.7004 29.9864 44.2946 28.3676 44.566 26.6805L45.994 17.6366C46.0154 17.5002 46.0044 17.3607 45.9616 17.2295C45.9189 17.0982 45.8457 16.979 45.7481 16.8814C45.6511 16.783 45.5319 16.7093 45.4004 16.6667C45.269 16.6241 45.1292 16.6137 44.993 16.6364L38.2625 17.6987L36.2342 12.7908C36.1815 12.6634 36.0994 12.5503 35.9946 12.4607C35.8899 12.371 35.7655 12.3074 35.6315 12.275C35.4974 12.2426 35.3577 12.2423 35.2235 12.2741C35.0894 12.306 34.9647 12.3691 34.8596 12.4583L32.6878 14.3037L29.2596 8.31255C29.1767 8.18692 29.0639 8.08382 28.9313 8.01248C28.7988 7.94115 28.6506 7.90381 28.5001 7.90381C28.3496 7.90381 28.2014 7.94115 28.0688 8.01248C27.9363 8.08382 27.8235 8.18692 27.7406 8.31255L24.3167 14.3002L22.145 12.4548C22.0403 12.3649 21.9156 12.3012 21.7814 12.2693C21.6471 12.2373 21.5072 12.2379 21.3732 12.2711C21.2392 12.3034 21.1148 12.3669 21.01 12.4565C20.9053 12.5461 20.8231 12.6591 20.7703 12.7864L18.7675 17.6208L12.5007 16.632C12.3645 16.6107 12.2252 16.6218 12.094 16.6645C11.9629 16.7072 11.8438 16.7802 11.7463 16.8777C11.6488 16.9752 11.5757 17.0944 11.533 17.2255C11.4903 17.3566 11.4792 17.496 11.5006 17.6322L12.9251 26.6875C13.1914 28.3142 13.755 29.8779 14.5876 31.3005C13.2532 31.7699 12.0171 32.4819 10.9415 33.4006L7.80896 36.0868C7.7132 36.1689 7.63634 36.2708 7.58364 36.3855C7.53095 36.5001 7.50366 36.6248 7.50366 36.7509C7.50366 36.8771 7.53095 37.0018 7.58364 37.1164C7.63634 37.231 7.7132 37.3329 7.80896 37.415L10.9388 40.1013C13.0285 41.8891 15.6875 42.8727 18.4376 42.875H18.8401C20.028 42.8759 21.2087 42.692 22.3401 42.3299C23.0115 45.9678 25.0221 49.2219 27.9751 51.4501C28.1265 51.5636 28.3108 51.625 28.5001 51.625C28.6894 51.625 28.8736 51.5636 29.0251 51.4501C31.9792 49.2227 33.991 45.9689 34.6636 42.3308C35.7951 42.6922 36.9758 42.8758 38.1636 42.875H38.5661C41.3166 42.8727 43.976 41.8888 46.0657 40.1004L49.1982 37.4142C49.294 37.332 49.3708 37.2302 49.4235 37.1155C49.4762 37.0009 49.5035 36.8762 49.5035 36.75C49.5035 36.6239 49.4762 36.4992 49.4235 36.3846C49.3708 36.2699 49.294 36.1681 49.1982 36.0859L46.0622 33.3997ZM44.0751 18.5501L42.8326 26.4076C42.5727 28.0701 41.9534 29.656 41.0178 31.0547C40.0219 32.5384 38.7001 33.7749 37.1532 34.6696C35.6064 35.5643 33.8755 36.0937 32.0928 36.2172L31.5958 36.2504C30.7319 36.312 29.8673 36.1404 29.0925 35.7534C29.0811 35.7482 29.0715 35.7429 29.0592 35.7386C28.5939 35.5024 28.169 35.1941 27.8001 34.825C27.3053 34.3302 26.922 33.7353 26.6758 33.0802C26.4297 32.4251 26.3264 31.7249 26.373 31.0267L26.4053 30.5297C26.581 27.8924 27.6478 25.3932 29.4307 23.4421C31.2136 21.4909 33.6068 20.2037 36.2176 19.7917L44.0751 18.5501ZM35.0722 14.5697L36.481 17.9822L35.9446 18.0697C35.5946 18.1248 35.2446 18.2097 34.8946 18.2946C34.6522 17.7984 34.4028 17.3137 34.1438 16.8604L33.569 15.8542L35.0722 14.5697ZM24.3771 17.7249L28.5001 10.5132L32.6231 17.7249C32.8235 18.0749 33.0142 18.4354 33.2006 18.8064C32.2874 19.1583 31.4153 19.609 30.6001 20.1504C29.9367 20.6017 29.3158 21.1125 28.7451 21.6764C27.3718 20.3139 25.708 19.2797 23.8783 18.6516C24.0437 18.3304 24.2126 18.0251 24.3771 17.7249ZM21.9271 14.5688L23.433 15.8489L22.8555 16.8604C22.621 17.2769 22.3917 17.7162 22.1625 18.1729C21.9472 18.1283 21.7425 18.0924 21.5412 18.0635L20.5455 17.9061L21.9271 14.5688ZM13.4168 18.5501L21.277 19.7908C21.6599 19.849 22.0396 19.927 22.4145 20.0244C24.3669 20.5284 26.1492 21.5449 27.577 22.9688C25.8763 25.098 24.8621 27.6934 24.6685 30.4116L24.6361 30.9086C24.5723 31.8557 24.712 32.8055 25.0458 33.6942C25.3797 34.5828 25.8999 35.3897 26.5716 36.0606C26.6285 36.1183 26.6915 36.1682 26.751 36.2233C26.4687 36.2564 26.1843 36.2664 25.9005 36.253L25.3938 36.2172C24.7412 36.1746 24.0938 36.0735 23.4592 35.9153C22.3641 35.6562 21.3123 35.2401 20.3363 34.6798C18.8759 33.8367 17.6178 32.6838 16.6508 31.3023L16.4758 31.0564C15.5433 29.6569 14.9245 28.0722 14.662 26.4111L13.4168 18.5501ZM18.8401 41.125H18.4376C16.1051 41.1229 13.8499 40.289 12.0772 38.7731L9.71908 36.75L12.0816 34.727C13.1112 33.8508 14.3122 33.1987 15.6078 32.8125C17.4554 35.227 20.0845 36.9244 23.0453 37.6145C23.7763 37.7975 24.5221 37.9146 25.274 37.9646L25.7788 38.0004C25.8558 38.0048 25.9328 38.0057 26.009 38.0074L25.7465 38.2699C24.8688 39.1514 23.8288 39.8547 22.684 40.341C21.4691 40.8603 20.1613 41.127 18.8401 41.125ZM28.5001 49.6344C26.0806 47.6066 24.4797 44.7694 23.9947 41.65C25.1004 41.1022 26.1099 40.3785 26.9837 39.5072L28.5001 37.9873L30.0165 39.5037C30.8905 40.375 31.8999 41.0989 33.0055 41.6474C32.5211 44.7677 30.9201 47.606 28.5001 49.6344ZM44.9238 38.7722C43.1511 40.2886 40.8955 41.1229 38.5626 41.125H38.1601C36.8366 41.1263 35.5267 40.8584 34.3101 40.3375C33.1672 39.8503 32.1291 39.1471 31.2528 38.2664L30.9842 37.9978C31.0796 37.9978 31.175 38.0118 31.2703 38.0118C31.4182 38.0118 31.567 38.0074 31.7148 37.9978L32.2118 37.9646C34.0676 37.8325 35.876 37.3179 37.5232 36.4531C39.1705 35.5883 40.621 34.392 41.7835 32.9394C42.9308 33.3369 43.9949 33.943 44.9221 34.727L47.2811 36.75L44.9238 38.7722Z" fill="#264065"/>
<path d="M5.75 35.875H4V37.625H5.75V35.875Z" fill="#264065"/>
<path d="M11 14H9.25V15.75H11V14Z" fill="#264065"/>
<path d="M29.375 4.375H27.625V6.125H29.375V4.375Z" fill="#264065"/>
<path d="M47.75 14H46V15.75H47.75V14Z" fill="#264065"/>
<path d="M53 35.875H51.25V37.625H53V35.875Z" fill="#264065"/>
</svg>
