<svg width="57" height="56" viewBox="0 0 57 56" fill="none" xmlns="http://www.w3.org/2000/svg">
<path d="M13.1508 26.6595C12.3336 27.4805 11.8749 28.5917 11.875 29.75V36.1725C11.8717 39.0167 12.8162 41.781 14.5592 44.0285C16.3022 46.2761 18.7445 47.8788 21.5 48.5835V51.625C21.5 51.8571 21.5922 52.0796 21.7563 52.2437C21.9204 52.4078 22.1429 52.5 22.375 52.5H34.625C34.8571 52.5 35.0796 52.4078 35.2437 52.2437C35.4078 52.0796 35.5 51.8571 35.5 51.625V48.5835C38.2556 47.8788 40.6978 46.2761 42.4408 44.0285C44.1838 41.781 45.1283 39.0167 45.125 36.1725V32.8204C45.9664 32.798 46.7941 32.6016 47.5558 32.2435C48.3175 31.8853 48.9968 31.3733 49.5508 30.7396L51.9071 28.0621C51.99 27.9674 52.0514 27.8559 52.0872 27.7353C52.123 27.6147 52.1324 27.4877 52.1147 27.3632C52.097 27.2386 52.0527 27.1193 51.9847 27.0134C51.9167 26.9075 51.8267 26.8175 51.7208 26.7496L48.7125 24.8281C47.8601 24.2816 46.8846 23.957 45.8748 23.8838C44.8649 23.8106 43.8528 23.9911 42.9305 24.409L43.6156 23.2356L46.6781 22.1725C48.0637 21.6995 49.2325 20.7434 49.9708 19.4792C50.7092 18.2149 50.9676 16.7271 50.6988 15.288L50.06 11.7784C50.0373 11.6543 49.9881 11.5366 49.9156 11.4333C49.8432 11.33 49.7492 11.2436 49.6403 11.18C49.5313 11.1165 49.4099 11.0772 49.2844 11.0649C49.1588 11.0527 49.0321 11.0677 48.9129 11.109L45.5424 12.2771C44.1577 12.7511 42.9899 13.7078 42.2526 14.9721C41.5152 16.2364 41.2577 17.7239 41.527 19.1625L42.108 22.3519L41.4386 23.4981C41.3414 22.4939 40.9962 21.5296 40.434 20.6919C39.8717 19.8542 39.1102 19.1693 38.2178 18.6987L35.0678 17.0222C34.9563 16.9628 34.8333 16.9282 34.7073 16.9207C34.5812 16.9133 34.455 16.9333 34.3373 16.9792C34.2197 17.0252 34.1134 17.0961 34.0258 17.1871C33.9381 17.278 33.8712 17.3869 33.8296 17.5061L32.6563 20.8722C32.1397 22.3412 32.2041 23.952 32.8365 25.375H26.0806L24.7778 21.2039C24.4721 20.221 23.8021 19.3922 22.905 18.8874C22.008 18.3826 20.9518 18.24 19.953 18.4888C18.9542 18.7376 18.0884 19.359 17.533 20.2256C16.9776 21.0922 16.7746 22.1384 16.9658 23.1499L17.3875 25.375H16.25C15.0876 25.3757 13.9729 25.8376 13.1508 26.6595ZM46.1208 13.93L48.527 13.097L48.9829 15.6021C49.1747 16.63 48.99 17.6927 48.4625 18.5956C47.9349 19.4984 47.0999 20.1811 46.1103 20.5187L43.7049 21.3526L43.249 18.8475C43.0571 17.8196 43.2417 16.7569 43.769 15.8539C44.2963 14.9509 45.1312 14.2679 46.1208 13.93ZM33.75 50.75H23.25V48.9125C23.7322 48.9685 24.2171 48.9977 24.7025 49H32.2975C32.7829 48.9977 33.2678 48.9685 33.75 48.9125V50.75ZM43.375 36.1725C43.3755 37.6273 43.0893 39.068 42.5327 40.4122C41.9762 41.7564 41.1602 42.9778 40.1315 44.0065C39.1028 45.0352 37.8814 45.8512 36.5372 46.4077C35.193 46.9642 33.7524 47.2505 32.2975 47.25H24.7025C21.8655 47.2595 19.1339 46.1749 17.0761 44.2219C15.0183 42.2688 13.7926 39.5977 13.6539 36.764C14.6705 37.3303 15.8152 37.6268 16.9789 37.625H18.875C19.1071 37.625 19.3296 37.5328 19.4937 37.3687C19.6578 37.2046 19.75 36.9821 19.75 36.75C19.75 36.5179 19.6578 36.2954 19.4937 36.1313C19.3296 35.9672 19.1071 35.875 18.875 35.875H16.9754C15.7423 35.8767 14.551 35.4284 13.625 34.6141V33.2272C14.3778 33.8063 15.3002 34.1218 16.25 34.125H40.75C41.6996 34.1206 42.6216 33.8053 43.375 33.2272V36.1725ZM38.2834 32.375L39.4209 30.429L41.6591 31.857C41.7703 31.9287 41.8884 31.9804 42.0021 32.0434C41.6193 32.2575 41.1886 32.3716 40.75 32.375H38.2834ZM42.1334 27.1014C42.8202 26.3129 43.7681 25.7982 44.8034 25.6515C45.8387 25.5048 46.8922 25.7359 47.771 26.3025L49.9183 27.6719L48.2365 29.5837C47.5498 30.3723 46.6019 30.8871 45.5666 31.0338C44.5312 31.1806 43.4777 30.9494 42.5989 30.3826L40.4525 29.0124L42.1334 27.1014ZM34.3083 21.4497L35.1465 19.0452L37.3944 20.2422C38.3196 20.7294 39.0384 21.5333 39.4194 22.5071C39.8003 23.4808 39.818 24.5591 39.469 25.5447L38.6308 27.9484L36.382 26.7522C35.4573 26.2647 34.7389 25.4606 34.3583 24.4869C33.9777 23.5133 33.9602 22.4352 34.3091 21.4497H34.3083ZM34.0125 27.125C34.4631 27.5947 34.9853 27.9901 35.5595 28.2966L37.9063 29.5461L36.2578 32.375H28.2681L27.7213 30.625H29.375C29.6071 30.625 29.8296 30.5328 29.9937 30.3687C30.1578 30.2046 30.25 29.9821 30.25 29.75C30.25 29.5179 30.1578 29.2954 29.9937 29.1313C29.8296 28.9672 29.6071 28.875 29.375 28.875H27.1744L26.6275 27.125H34.0125ZM19.1725 20.9501C19.4345 20.6333 19.7772 20.3931 20.1645 20.255C20.5517 20.1169 20.9691 20.086 21.3724 20.1655C21.7758 20.245 22.1502 20.432 22.456 20.7067C22.7619 20.9814 22.9878 21.3337 23.11 21.7262L26.435 32.375H20.4763L18.686 22.827C18.6238 22.4976 18.6352 22.1586 18.7193 21.8341C18.8034 21.5097 18.9582 21.2078 19.1725 20.9501ZM17.7113 27.125L18.0394 28.875H16.25C16.0179 28.875 15.7954 28.9672 15.6313 29.1313C15.4672 29.2954 15.375 29.5179 15.375 29.75C15.375 29.9821 15.4672 30.2046 15.6313 30.3687C15.7954 30.5328 16.0179 30.625 16.25 30.625H18.3675L18.6956 32.375H16.25C15.5538 32.375 14.8861 32.0984 14.3939 31.6061C13.9016 31.1139 13.625 30.4462 13.625 29.75C13.625 29.0538 13.9016 28.3861 14.3939 27.8938C14.8861 27.4016 15.5538 27.125 16.25 27.125H17.7113Z" fill="#264065"/>
<path d="M23.25 35.875H22.375C22.1429 35.875 21.9204 35.9672 21.7563 36.1313C21.5922 36.2954 21.5 36.5179 21.5 36.75C21.5 36.982 21.5922 37.2046 21.7563 37.3687C21.9204 37.5328 22.1429 37.625 22.375 37.625H23.25C23.4821 37.625 23.7046 37.5328 23.8687 37.3687C24.0328 37.2046 24.125 36.982 24.125 36.75C24.125 36.5179 24.0328 36.2954 23.8687 36.1313C23.7046 35.9672 23.4821 35.875 23.25 35.875ZM32.875 30.625H33.75C33.9821 30.625 34.2046 30.5328 34.3687 30.3687C34.5328 30.2046 34.625 29.982 34.625 29.75C34.625 29.5179 34.5328 29.2954 34.3687 29.1313C34.2046 28.9672 33.9821 28.875 33.75 28.875H32.875C32.6429 28.875 32.4204 28.9672 32.2563 29.1313C32.0922 29.2954 32 29.5179 32 29.75C32 29.982 32.0922 30.2046 32.2563 30.3687C32.4204 30.5328 32.6429 30.625 32.875 30.625ZM22.5036 9.3966C22.397 9.72454 22.3561 10.0703 22.3831 10.414C22.4101 10.7578 22.5047 11.0929 22.6612 11.4001C22.8178 11.7074 23.0334 11.9807 23.2957 12.2046C23.5579 12.4285 23.8617 12.5985 24.1897 12.705C24.5625 12.8261 24.9519 12.8879 25.3439 12.8879C25.4585 12.8879 25.5705 12.8651 25.6842 12.8546C25.5887 13.2405 25.582 13.643 25.6648 14.0318C25.7475 14.4206 25.9175 14.7856 26.1618 15.0991C26.4062 15.4127 26.7186 15.6666 27.0754 15.8418C27.4323 16.017 27.8242 16.1089 28.2217 16.1105C28.3609 16.1105 28.4999 16.0997 28.6374 16.0781C28.9782 16.0251 29.3051 15.905 29.5992 15.7248C29.8933 15.5445 30.1487 15.3077 30.3506 15.0281C30.6508 14.6159 30.8626 14.1461 30.9727 13.6482C31.4882 13.9677 32.0987 14.0982 32.6997 14.0172C33.3008 13.9363 33.855 13.6489 34.2676 13.2044C34.6801 12.7599 34.9254 12.1859 34.9614 11.5805C34.9974 10.9751 34.8219 10.376 34.4649 9.88573C34.1683 9.47744 33.7917 9.13386 33.358 8.87598C33.8193 8.48166 34.1297 7.93967 34.2365 7.34226C34.3432 6.74484 34.2396 6.1289 33.9434 5.59924C33.6472 5.06958 33.1766 4.65892 32.6116 4.43715C32.0467 4.21538 31.4225 4.19619 30.845 4.38285C30.3652 4.53892 29.9222 4.79108 29.543 5.12398C29.3098 4.56462 28.8903 4.10317 28.3556 3.81795C27.8209 3.53273 27.2039 3.4413 26.6095 3.55918C26.0151 3.67705 25.4797 3.99698 25.0943 4.46466C24.7089 4.93234 24.4972 5.51896 24.4951 6.12498C24.4952 6.62858 24.5976 7.12691 24.7961 7.58973C24.2783 7.63097 23.7843 7.82456 23.3763 8.14611C22.9684 8.46765 22.6647 8.90276 22.5036 9.3966ZM33.05 10.913C33.1176 11.0059 33.1662 11.1113 33.193 11.223C33.2199 11.3348 33.2244 11.4507 33.2065 11.5642C33.1885 11.6777 33.1484 11.7866 33.0883 11.8846C33.0283 11.9826 32.9496 12.0678 32.8566 12.1354C32.7637 12.2029 32.6583 12.2515 32.5466 12.2784C32.4348 12.3052 32.3189 12.3098 32.2054 12.2918C32.0919 12.2739 31.983 12.2337 31.885 12.1737C31.787 12.1137 31.7018 12.0349 31.6342 11.942L30.4092 10.2559L31.146 10.1334C31.5045 10.0728 31.8728 10.1138 32.2092 10.2515C32.5457 10.3893 32.8369 10.6184 33.05 10.913ZM30.0575 7.61685C30.1102 7.25699 30.2627 6.91912 30.4978 6.64163C30.7329 6.36415 31.0412 6.15817 31.3875 6.0471C31.4744 6.01811 31.5654 6.00334 31.657 6.00335C31.8659 6.00253 32.0681 6.07645 32.2272 6.21176C32.3864 6.34706 32.4918 6.53482 32.5246 6.7411C32.5574 6.94739 32.5153 7.15858 32.4059 7.33653C32.2965 7.51447 32.1271 7.64742 31.9282 7.71135L29.9464 8.35535L30.0575 7.61685ZM29.0897 11.9481C29.2586 12.2702 29.3339 12.6331 29.307 12.9958C29.2801 13.3585 29.1521 13.7064 28.9375 14C28.8699 14.0929 28.7847 14.1717 28.6867 14.2317C28.5887 14.2917 28.4799 14.3319 28.3664 14.3498C28.2528 14.3678 28.1369 14.3632 28.0252 14.3364C27.9134 14.3095 27.8081 14.2609 27.7151 14.1934C27.6222 14.1258 27.5434 14.0406 27.4834 13.9426C27.4234 13.8446 27.3832 13.7357 27.3653 13.6222C27.3473 13.5087 27.3519 13.3928 27.3787 13.281C27.4056 13.1693 27.4542 13.0639 27.5217 12.971L28.7467 11.2849L29.0897 11.9481ZM27.1201 5.24998C27.3522 5.24998 27.5747 5.34216 27.7388 5.50626C27.9029 5.67035 27.9951 5.89291 27.9951 6.12498V8.20923L27.3266 7.87498C27.0007 7.71361 26.7266 7.46408 26.5355 7.15473C26.3443 6.84539 26.2437 6.48863 26.2451 6.12498C26.2451 5.89291 26.3373 5.67035 26.5014 5.50626C26.6655 5.34216 26.8881 5.24998 27.1201 5.24998ZM24.1687 9.93735C24.2258 9.76176 24.3369 9.60871 24.4862 9.50011C24.6355 9.39151 24.8154 9.33292 25 9.33273C25.0924 9.33271 25.1842 9.34717 25.2721 9.3756L27.254 10.0196L26.729 10.5525C26.4747 10.8124 26.1527 10.9958 25.7994 11.082C25.4462 11.1681 25.0759 11.1535 24.7305 11.0399C24.5098 10.9681 24.3267 10.8117 24.2213 10.6049C24.116 10.3982 24.0971 10.158 24.1687 9.93735ZM21.0161 7.45235C20.9133 7.40091 20.8014 7.37022 20.6868 7.36203C20.5721 7.35385 20.457 7.36833 20.348 7.40465C20.2389 7.44097 20.1381 7.49842 20.0513 7.57372C19.9644 7.64901 19.8933 7.74068 19.8419 7.84348C19.5112 8.50894 19.3391 9.24194 19.3391 9.98504C19.3391 10.7281 19.5112 11.4611 19.8419 12.1266C19.9149 12.2727 20.0273 12.3955 20.1665 12.481C20.3057 12.5665 20.466 12.6114 20.6294 12.6105C20.7649 12.6105 20.8986 12.5787 21.0196 12.5177C21.1225 12.4664 21.2142 12.3953 21.2896 12.3085C21.365 12.2217 21.4226 12.1209 21.459 12.0118C21.4954 11.9028 21.5099 11.7876 21.5018 11.6729C21.4937 11.5583 21.463 11.4463 21.4116 11.3435C21.2014 10.9215 21.092 10.4565 21.092 9.98504C21.092 9.5136 21.2014 9.04859 21.4116 8.6266C21.4629 8.52356 21.4934 8.41141 21.5012 8.29658C21.5091 8.18175 21.4943 8.06649 21.4575 7.95741C21.4208 7.84833 21.3629 7.74757 21.2871 7.66091C21.2114 7.57424 21.1193 7.50337 21.0161 7.45235ZM36.4284 12.8284C36.3364 12.9024 36.2603 12.9944 36.2048 13.0987C36.1493 13.2029 36.1155 13.3174 36.1054 13.435C36.0953 13.5527 36.1092 13.6712 36.1461 13.7834C36.1831 13.8956 36.2423 13.9992 36.3204 14.0878C36.3984 14.1765 36.4936 14.2485 36.6002 14.2994C36.7067 14.3503 36.8225 14.3791 36.9405 14.384C37.0586 14.389 37.1764 14.37 37.2868 14.3282C37.3973 14.2864 37.4982 14.2227 37.5834 14.1409L37.7382 14.0043C38.2569 13.5516 38.6384 12.9626 38.8395 12.304C39.0405 11.6455 39.0531 10.9439 38.8757 10.2786C38.849 10.1649 38.7998 10.0577 38.731 9.96337C38.6622 9.86901 38.5752 9.78937 38.4752 9.72915C38.3751 9.66893 38.264 9.62935 38.1484 9.61275C38.0328 9.59614 37.915 9.60284 37.8021 9.63245C37.6891 9.66207 37.5832 9.714 37.4906 9.78518C37.3981 9.85636 37.3207 9.94535 37.263 10.0469C37.2054 10.1485 37.1686 10.2605 37.155 10.3765C37.1413 10.4925 37.151 10.6101 37.1835 10.7222C37.2768 11.0738 37.2698 11.4445 37.1632 11.7923C37.0567 12.1401 36.8548 12.4511 36.5806 12.6901L36.4284 12.8284Z" fill="#264065"/>
</svg>
