<svg width="24" height="24" viewBox="0 0 24 24" fill="none" xmlns="http://www.w3.org/2000/svg">
<path d="M4.57959 20.3297V3.67037C4.57959 2.95084 5.37412 2.51725 5.97881 2.90397L19.0007 11.2337C19.5608 11.5922 19.5608 12.4079 19.0007 12.7665L5.97881 21.0962C5.37412 21.4829 4.57959 21.0493 4.57959 20.3297Z" fill="#424241"/>
<path d="M4.93105 20.3297C4.93105 20.0016 4.93105 19.6711 4.93105 19.343C4.93105 18.5063 4.93105 17.6696 4.93105 16.8329C4.93105 15.6961 4.93105 14.5594 4.93105 13.425C4.93105 12.2063 4.93105 10.9875 4.93105 9.76645C4.93105 8.67895 4.93105 7.59145 4.93105 6.50161C4.93105 5.75864 4.93105 5.01802 4.93105 4.27505C4.93105 4.10161 4.93105 3.92583 4.93105 3.75239C4.93105 3.72661 4.93105 3.69848 4.93105 3.6727C4.93105 3.66098 4.93105 3.6563 4.93105 3.63989C4.93105 3.6188 4.9334 3.60005 4.93574 3.57895C4.93105 3.65395 4.9334 3.59067 4.93809 3.56958C4.9498 3.52739 4.96152 3.4852 4.97324 3.44536C4.9498 3.51567 4.96621 3.45708 4.97793 3.43833C4.99434 3.4102 5.0084 3.38208 5.02715 3.35395C5.03652 3.33755 5.04824 3.32348 5.05762 3.30942C5.01543 3.36802 5.04355 3.32817 5.05527 3.31645C5.08809 3.28364 5.11855 3.25317 5.15371 3.2227C5.09746 3.27192 5.13965 3.23208 5.1584 3.22036C5.17715 3.20864 5.1959 3.19692 5.21699 3.1852C5.2334 3.17583 5.2498 3.1688 5.26621 3.15942C5.33418 3.12192 5.21465 3.17348 5.28262 3.15239C5.32715 3.14067 5.36934 3.12661 5.41387 3.11723C5.49355 3.09614 5.36699 3.1102 5.41621 3.11723C5.4373 3.11958 5.46309 3.11489 5.48418 3.11489C5.50293 3.11489 5.52168 3.11489 5.54043 3.11723C5.54512 3.11723 5.63184 3.13364 5.57793 3.11958C5.52168 3.10552 5.61309 3.12895 5.61543 3.12895C5.64355 3.13598 5.67168 3.14536 5.69746 3.15473C5.7584 3.17348 5.70918 3.15942 5.69512 3.15239C5.72324 3.16645 5.74902 3.18052 5.7748 3.19458C5.78418 3.19927 5.79355 3.2063 5.80059 3.21098C5.80293 3.21333 5.80527 3.21333 5.80762 3.21567C5.84043 3.23677 5.87559 3.25786 5.9084 3.27895C6.08418 3.39145 6.25762 3.50161 6.4334 3.61411C7.11543 4.05005 7.7998 4.48833 8.48184 4.92427C9.44277 5.54067 10.4061 6.15473 11.367 6.77114C12.3865 7.4227 13.4061 8.07661 14.4279 8.72817C15.3068 9.29067 16.1834 9.85083 17.0623 10.4133C17.585 10.7485 18.1076 11.0836 18.6326 11.4165C18.6842 11.4493 18.7334 11.4821 18.785 11.5125C18.7967 11.5196 18.8084 11.5266 18.8201 11.5336C18.8225 11.5336 18.8248 11.536 18.8248 11.536C18.8412 11.5477 18.86 11.5594 18.8764 11.5711C18.8225 11.529 18.874 11.5711 18.8857 11.5829C18.9092 11.6086 18.9326 11.6321 18.9561 11.6555C18.9701 11.6696 18.9842 11.7071 18.9537 11.6532C18.9631 11.6696 18.9748 11.6836 18.9842 11.7C18.9982 11.7235 19.01 11.7493 19.024 11.775C19.0334 11.7938 19.0404 11.8336 19.0217 11.768C19.0357 11.8125 19.0498 11.8547 19.0615 11.9016C19.0662 11.9204 19.0686 11.9368 19.0709 11.9555C19.0568 11.8665 19.0686 11.9508 19.0686 11.9719C19.0686 11.9977 19.0568 12.136 19.0709 12.0422C19.0639 12.0868 19.0545 12.1336 19.0404 12.1758C19.0357 12.1946 19.0287 12.211 19.0217 12.2274C19.0451 12.1547 19.0287 12.2133 19.017 12.2321C19.0053 12.2532 18.9959 12.2743 18.9818 12.293C18.9748 12.3024 18.9209 12.3774 18.9701 12.3141C18.9396 12.3516 18.9045 12.3844 18.8693 12.4196C18.86 12.429 18.8178 12.4618 18.8693 12.4219C18.8506 12.436 18.8389 12.443 18.8178 12.4571C18.8154 12.4571 18.8154 12.4594 18.8131 12.4594C18.8037 12.4665 18.792 12.4735 18.7826 12.4782C18.3842 12.7336 17.9857 12.9868 17.5873 13.2422C16.7834 13.7555 15.9795 14.2711 15.1756 14.7844C14.1654 15.429 13.1576 16.0758 12.1475 16.7204C11.1561 17.3555 10.1623 17.9907 9.1709 18.6258C8.39512 19.1227 7.61934 19.6196 6.84355 20.1141C6.49668 20.3368 6.15215 20.5618 5.80293 20.7797C5.76543 20.8032 5.72793 20.8243 5.68809 20.8454C5.74668 20.8149 5.70449 20.8383 5.69043 20.843C5.66699 20.85 5.64355 20.8571 5.62012 20.8641C5.59668 20.8711 5.57324 20.8735 5.5498 20.8805C5.61309 20.8618 5.58496 20.8782 5.55918 20.8782C5.5123 20.8805 5.46777 20.8805 5.4209 20.8782C5.35527 20.8758 5.41855 20.8782 5.43262 20.8805C5.40684 20.8758 5.37871 20.8711 5.35293 20.8641C5.32949 20.8594 5.22871 20.8219 5.26621 20.8383C5.30371 20.8547 5.20527 20.8055 5.18652 20.7938C5.16777 20.7821 5.14902 20.7657 5.13027 20.7563C5.08574 20.7352 5.18418 20.8102 5.12559 20.7516C5.09277 20.7188 5.05996 20.6883 5.02949 20.6532C5.07871 20.7071 5.02012 20.6368 5.00371 20.6133C4.98965 20.5899 4.97793 20.5641 4.96387 20.5407C4.95449 20.5219 4.9498 20.4844 4.96621 20.5477C4.95449 20.5008 4.93809 20.4563 4.92637 20.4094C4.92168 20.3907 4.92402 20.3461 4.92637 20.4141C4.9334 20.3907 4.93105 20.3602 4.93105 20.3297C4.92871 20.1469 4.77168 19.9688 4.57949 19.9782C4.39199 19.9875 4.22559 20.1329 4.22793 20.3297C4.23496 20.7938 4.48809 21.2415 4.9123 21.45C5.31309 21.6469 5.77715 21.6352 6.15918 21.3985C6.2459 21.3446 6.33262 21.2883 6.41699 21.2321C6.98652 20.8688 7.55605 20.5032 8.12559 20.1399C9.04199 19.554 9.9584 18.968 10.8748 18.3821C11.9131 17.7165 12.9537 17.0532 13.992 16.3875C14.9389 15.7829 15.8857 15.1758 16.8326 14.5711C17.4701 14.1633 18.11 13.7555 18.7475 13.3454C18.8811 13.261 19.0146 13.1743 19.1482 13.0899C19.2748 13.0079 19.3943 12.9141 19.4881 12.7946C19.7951 12.4079 19.8514 11.8946 19.6428 11.4469C19.5139 11.1727 19.2842 10.9993 19.0404 10.8422C18.8529 10.7227 18.6631 10.6008 18.4756 10.4813C17.7607 10.0243 17.0459 9.56723 16.3334 9.1102C15.349 8.47974 14.3623 7.84927 13.3779 7.2188C12.342 6.55786 11.3084 5.89458 10.2725 5.23364C9.40762 4.68052 8.54277 4.12739 7.67793 3.57427C7.20449 3.27192 6.7334 2.96958 6.25996 2.66723C5.93887 2.46098 5.58262 2.35552 5.19824 2.44223C4.60527 2.57583 4.22793 3.12192 4.22559 3.71255C4.22559 4.16958 4.22559 4.62427 4.22559 5.0813C4.22559 6.0188 4.22559 6.9563 4.22559 7.8938C4.22559 9.08442 4.22559 10.2727 4.22559 11.4633C4.22559 12.6844 4.22559 13.9079 4.22559 15.129C4.22559 16.1625 4.22559 17.1961 4.22559 18.2321C4.22559 18.8508 4.22559 19.4672 4.22559 20.086C4.22559 20.168 4.22559 20.25 4.22559 20.3344C4.22559 20.5172 4.3873 20.6954 4.57715 20.686C4.76934 20.6719 4.93105 20.5266 4.93105 20.3297Z" fill="#424241"/>
</svg>
