<svg width="24" height="24" viewBox="0 0 24 24" fill="none" xmlns="http://www.w3.org/2000/svg">
<path d="M4.57983 20.3297V3.67037C4.57983 2.95084 5.37437 2.51725 5.97905 2.90397L19.0009 11.2337C19.5611 11.5922 19.5611 12.4079 19.0009 12.7665L5.97905 21.0962C5.37437 21.4829 4.57983 21.0493 4.57983 20.3297Z" fill="#313131"/>
<path d="M4.9313 20.3296C4.9313 20.0015 4.9313 19.671 4.9313 19.3429C4.9313 18.5062 4.9313 17.6695 4.9313 16.8327C4.9313 15.696 4.9313 14.5593 4.9313 13.4249C4.9313 12.2062 4.9313 10.9874 4.9313 9.76633C4.9313 8.67883 4.9313 7.59133 4.9313 6.50149C4.9313 5.75852 4.9313 5.01789 4.9313 4.27492C4.9313 4.10149 4.9313 3.92571 4.9313 3.75227C4.9313 3.72649 4.9313 3.69836 4.9313 3.67258C4.9313 3.66086 4.9313 3.65618 4.9313 3.63977C4.9313 3.61868 4.93364 3.59992 4.93599 3.57883C4.9313 3.65383 4.93364 3.59055 4.93833 3.56946C4.95005 3.52727 4.96177 3.48508 4.97349 3.44524C4.95005 3.51555 4.96645 3.45696 4.97817 3.43821C4.99458 3.41008 5.00864 3.38196 5.02739 3.35383C5.03677 3.33743 5.04849 3.32336 5.05786 3.3093C5.01567 3.36789 5.0438 3.32805 5.05552 3.31633C5.08833 3.28352 5.1188 3.25305 5.15395 3.22258C5.0977 3.2718 5.13989 3.23196 5.15864 3.22024C5.17739 3.20852 5.19614 3.1968 5.21724 3.18508C5.23364 3.17571 5.25005 3.16868 5.26645 3.1593C5.33442 3.1218 5.21489 3.17336 5.28286 3.15227C5.32739 3.14055 5.36958 3.12649 5.41411 3.11711C5.4938 3.09602 5.36724 3.11008 5.41646 3.11711C5.43755 3.11946 5.46333 3.11477 5.48442 3.11477C5.50317 3.11477 5.52192 3.11477 5.54067 3.11711C5.54536 3.11711 5.63208 3.13352 5.57817 3.11946C5.52192 3.10539 5.61333 3.12883 5.61567 3.12883C5.6438 3.13586 5.67192 3.14524 5.69771 3.15461C5.75864 3.17336 5.70942 3.1593 5.69536 3.15227C5.72349 3.16633 5.74927 3.18039 5.77505 3.19446C5.78442 3.19914 5.7938 3.20618 5.80083 3.21086C5.80317 3.21321 5.80552 3.21321 5.80786 3.21555C5.84067 3.23664 5.87583 3.25774 5.90864 3.27883C6.08442 3.39133 6.25786 3.50149 6.43364 3.61399C7.11567 4.04992 7.80005 4.48821 8.48208 4.92414C9.44302 5.54055 10.4063 6.15461 11.3672 6.77102C12.3868 7.42258 13.4063 8.07649 14.4282 8.72805C15.3071 9.29055 16.1836 9.85071 17.0625 10.4132C17.5852 10.7484 18.1079 11.0835 18.6329 11.4163C18.6844 11.4491 18.7336 11.482 18.7852 11.5124C18.7969 11.5195 18.8086 11.5265 18.8204 11.5335C18.8227 11.5335 18.825 11.5359 18.825 11.5359C18.8415 11.5476 18.8602 11.5593 18.8766 11.571C18.8227 11.5288 18.8743 11.571 18.886 11.5827C18.9094 11.6085 18.9329 11.632 18.9563 11.6554C18.9704 11.6695 18.9844 11.707 18.954 11.6531C18.9633 11.6695 18.975 11.6835 18.9844 11.6999C18.9985 11.7234 19.0102 11.7491 19.0243 11.7749C19.0336 11.7937 19.0407 11.8335 19.0219 11.7679C19.036 11.8124 19.05 11.8546 19.0618 11.9015C19.0665 11.9202 19.0688 11.9366 19.0711 11.9554C19.0571 11.8663 19.0688 11.9507 19.0688 11.9718C19.0688 11.9976 19.0571 12.1359 19.0711 12.0421C19.0641 12.0866 19.0547 12.1335 19.0407 12.1757C19.036 12.1945 19.029 12.2109 19.0219 12.2273C19.0454 12.1546 19.029 12.2132 19.0172 12.232C19.0055 12.2531 18.9961 12.2741 18.9821 12.2929C18.975 12.3023 18.9211 12.3773 18.9704 12.314C18.9399 12.3515 18.9047 12.3843 18.8696 12.4195C18.8602 12.4288 18.818 12.4616 18.8696 12.4218C18.8508 12.4359 18.8391 12.4429 18.818 12.457C18.8157 12.457 18.8157 12.4593 18.8133 12.4593C18.804 12.4663 18.7922 12.4734 18.7829 12.4781C18.3844 12.7335 17.986 12.9866 17.5875 13.2421C16.7836 13.7554 15.9797 14.271 15.1758 14.7843C14.1657 15.4288 13.1579 16.0757 12.1477 16.7202C11.1563 17.3554 10.1625 17.9906 9.17114 18.6257C8.39536 19.1226 7.61958 19.6195 6.8438 20.114C6.49692 20.3366 6.15239 20.5616 5.80317 20.7796C5.76567 20.803 5.72817 20.8241 5.68833 20.8452C5.74692 20.8148 5.70474 20.8382 5.69067 20.8429C5.66724 20.8499 5.6438 20.857 5.62036 20.864C5.59692 20.871 5.57349 20.8734 5.55005 20.8804C5.61333 20.8616 5.5852 20.878 5.55942 20.878C5.51255 20.8804 5.46802 20.8804 5.42114 20.878C5.35552 20.8757 5.4188 20.878 5.43286 20.8804C5.40708 20.8757 5.37895 20.871 5.35317 20.864C5.32974 20.8593 5.22895 20.8218 5.26645 20.8382C5.30395 20.8546 5.20552 20.8054 5.18677 20.7937C5.16802 20.782 5.14927 20.7655 5.13052 20.7562C5.08599 20.7351 5.18442 20.8101 5.12583 20.7515C5.09302 20.7187 5.06021 20.6882 5.02974 20.653C5.07896 20.707 5.02036 20.6366 5.00396 20.6132C4.98989 20.5898 4.97817 20.564 4.96411 20.5406C4.95474 20.5218 4.95005 20.4843 4.96645 20.5476C4.95474 20.5007 4.93833 20.4562 4.92661 20.4093C4.92192 20.3905 4.92427 20.346 4.92661 20.414C4.93364 20.3905 4.9313 20.3601 4.9313 20.3296C4.92895 20.1468 4.77192 19.9687 4.57974 19.9781C4.39224 19.9874 4.22583 20.1327 4.22817 20.3296C4.2352 20.7937 4.48833 21.2413 4.91255 21.4499C5.31333 21.6468 5.77739 21.6351 6.15942 21.3984C6.24614 21.3445 6.33286 21.2882 6.41724 21.232C6.98677 20.8687 7.5563 20.503 8.12583 20.1398C9.04224 19.5538 9.95864 18.9679 10.875 18.382C11.9133 17.7163 12.954 17.0531 13.9922 16.3874C14.9391 15.7827 15.886 15.1757 16.8329 14.571C17.4704 14.1632 18.1102 13.7554 18.7477 13.3452C18.8813 13.2609 19.0149 13.1741 19.1485 13.0898C19.275 13.0077 19.3946 12.914 19.4883 12.7945C19.7954 12.4077 19.8516 11.8945 19.643 11.4468C19.5141 11.1726 19.2844 10.9991 19.0407 10.8421C18.8532 10.7226 18.6633 10.6007 18.4758 10.4812C17.761 10.0241 17.0461 9.56711 16.3336 9.11008C15.3493 8.47961 14.3625 7.84914 13.3782 7.21868C12.3422 6.55774 11.3086 5.89446 10.2727 5.23352C9.40786 4.68039 8.54302 4.12727 7.67817 3.57414C7.20474 3.2718 6.73364 2.96946 6.26021 2.66711C5.93911 2.46086 5.58286 2.35539 5.19849 2.44211C4.60552 2.57571 4.22817 3.1218 4.22583 3.71242C4.22583 4.16946 4.22583 4.62414 4.22583 5.08118C4.22583 6.01868 4.22583 6.95617 4.22583 7.89367C4.22583 9.0843 4.22583 10.2726 4.22583 11.4632C4.22583 12.6843 4.22583 13.9077 4.22583 15.1288C4.22583 16.1624 4.22583 17.196 4.22583 18.232C4.22583 18.8507 4.22583 19.4671 4.22583 20.0859C4.22583 20.1679 4.22583 20.2499 4.22583 20.3343C4.22583 20.5171 4.38755 20.6952 4.57739 20.6859C4.76958 20.6718 4.9313 20.5265 4.9313 20.3296Z" fill="#313131"/>
</svg>
