<svg width="48" height="48" viewBox="0 0 48 48" fill="none" xmlns="http://www.w3.org/2000/svg">
<path d="M21.1772 21.1771C18.8395 21.1771 16.4686 22.0653 14.5912 23.5359C12.7138 25.0065 11.2722 27.1444 11.2722 29.6522V33.9002C11.2722 38.5756 15.0823 42.3753 19.7577 42.3753H28.2432C32.9186 42.3753 36.7288 38.5756 36.7288 33.9002V29.6522C36.7288 27.1444 35.2871 25.0065 33.4097 23.5359C31.5323 22.0653 29.1614 21.1771 26.8238 21.1771C26.4526 21.1774 26.0965 21.3236 25.8322 21.5841L24.0057 23.4211L22.1687 21.5841C21.9044 21.3236 21.5483 21.1774 21.1772 21.1771ZM20.7388 24.1517L23.0037 26.4166C23.2686 26.6799 23.627 26.8277 24.0005 26.8277C24.374 26.8277 24.7323 26.6799 24.9972 26.4166L27.2621 24.1517C28.7412 24.2614 30.4065 24.7824 31.6667 25.7695C33.0519 26.8545 33.9003 28.2435 33.9003 29.6522V33.9002C33.9003 37.0579 31.4009 39.5468 28.2432 39.5468H19.7577C16.6 39.5468 14.1007 37.0579 14.1007 33.9002V29.6522C14.1007 28.2435 14.9491 26.8545 16.3343 25.7695C17.5944 24.7824 19.2597 24.2614 20.7388 24.1517ZM23.9952 5.62549C20.498 5.62549 17.6389 8.4846 17.6389 11.9818C17.6389 15.479 20.498 18.3486 23.9952 18.3486C27.4925 18.3486 30.362 15.479 30.362 11.9818C30.362 8.4846 27.4925 5.62549 23.9952 5.62549ZM23.9952 8.44356C25.9642 8.44356 27.5335 10.0129 27.5335 11.9818C27.5335 13.9508 25.9642 15.5201 23.9952 15.5201C22.0263 15.5201 20.4674 13.9508 20.4674 11.9818C20.4674 10.0129 22.0263 8.44356 23.9952 8.44356Z" fill="#303030"/>
<path d="M31.6354 22.5652C31.3822 22.5605 31.1324 22.6239 30.912 22.7487C30.6917 22.8736 30.509 23.0553 30.3829 23.2749L27.951 27.3664L24.9972 24.4126C24.8672 24.2747 24.7108 24.1644 24.5373 24.0882C24.3639 24.012 24.1768 23.9714 23.9873 23.9688C23.7979 23.9663 23.6098 24.0019 23.4344 24.0735C23.2589 24.1451 23.0996 24.2512 22.966 24.3855C22.8324 24.5198 22.7271 24.6797 22.6564 24.8555C22.5858 25.0313 22.5512 25.2196 22.5547 25.409C22.5582 25.5985 22.5998 25.7853 22.6769 25.9584C22.754 26.1315 22.8652 26.2873 23.0037 26.4166L27.2412 30.6541C27.3938 30.8057 27.579 30.9205 27.7827 30.9897C27.9863 31.0589 28.2031 31.0808 28.4164 31.0536C28.6298 31.0264 28.8341 30.9509 29.0139 30.8329C29.1937 30.7148 29.3442 30.5573 29.454 30.3723L32.8148 24.7257C32.9469 24.5131 33.0203 24.2693 33.0274 24.0191C33.0345 23.7688 32.975 23.5212 32.8551 23.3015C32.7351 23.0818 32.559 22.8979 32.3447 22.7685C32.1304 22.6391 31.8856 22.569 31.6354 22.5652Z" fill="#303030"/>
<path d="M16.3238 22.5756C16.0787 22.5875 15.8409 22.6631 15.6338 22.7947C15.4267 22.9264 15.2574 23.1097 15.1426 23.3267C15.0279 23.5436 14.9715 23.7866 14.9791 24.0319C14.9868 24.2772 15.0581 24.5163 15.1861 24.7257L18.547 30.3723C18.6567 30.5573 18.8072 30.7148 18.987 30.8329C19.1668 30.9509 19.3711 31.0264 19.5845 31.0536C19.7978 31.0808 20.0146 31.0589 20.2182 30.9897C20.4219 30.9205 20.6071 30.8057 20.7597 30.6541L24.9972 26.4165C25.1357 26.2873 25.2469 26.1314 25.324 25.9584C25.4011 25.7853 25.4427 25.5985 25.4462 25.409C25.4497 25.2195 25.4151 25.0313 25.3445 24.8555C25.2738 24.6797 25.1685 24.5198 25.0349 24.3855C24.9013 24.2512 24.742 24.145 24.5665 24.0735C24.3911 24.0019 24.203 23.9663 24.0136 23.9688C23.8241 23.9714 23.6371 24.012 23.4636 24.0882C23.2901 24.1644 23.1337 24.2747 23.0037 24.4126L20.0499 27.3663L17.618 23.2749C17.4872 23.0508 17.2973 22.8671 17.069 22.7437C16.8407 22.6204 16.5829 22.5622 16.3238 22.5756ZM28.2432 32.4806C27.8681 32.4806 27.5084 32.6296 27.2432 32.8949C26.978 33.1601 26.829 33.5198 26.829 33.8949C26.829 34.27 26.978 34.6297 27.2432 34.8949C27.5084 35.1601 27.8681 35.3091 28.2432 35.3091H29.6523C30.0273 35.3091 30.3871 35.1601 30.6523 34.8949C30.9175 34.6297 31.0665 34.27 31.0665 33.8949C31.0665 33.5198 30.9175 33.1601 30.6523 32.8949C30.3871 32.6296 30.0273 32.4806 29.6523 32.4806H28.2432Z" fill="#303030"/>
</svg>
