<svg width="695" height="618" viewBox="0 0 695 618" fill="none" xmlns="http://www.w3.org/2000/svg">
<path fill-rule="evenodd" clip-rule="evenodd" d="M362.796 0.0815609C411.65 2.04601 440.316 57.4624 485.903 75.1382C542.902 97.2387 618.9 72.0658 661.51 115.903C702.954 158.541 694.426 228.919 693.16 288.367C691.914 346.923 680.15 404.107 654.258 456.643C627.216 511.512 595.347 568.944 541.02 597.06C487.252 624.886 421.904 620.574 362.796 607.481C309.968 595.779 274.76 548.28 224.989 527.055C166.235 502 87.4539 519.533 44.8864 471.911C2.73053 424.751 -12.8345 346.699 11.6308 288.367C36.9457 228.008 122.673 222.785 168.834 176.383C199.677 145.379 201.475 94.4173 233.836 65.0026C270.067 32.0711 313.875 -1.88555 362.796 0.0815609Z" fill="#DC0155"/>
</svg>
